PathFileType	4	(X/Y/Z)	C:\Users\Basilio\Documents\Thesis Gigler\squatting_fais\c3dfiles\075\SLS_front_pre4\markers_experimental.trc
DataRate	CameraRate	NumFrames	NumMarkers	Units	OrigDataRate	OrigDataStartFrame	OrigNumFrames
200.000000	200.000000	4	61	mm	200.000000	1000	1334
Frame#	Time	FHD			LBHD			RBHD			C7			T10			CLAV			LSHO			LUUPA			LMUPA			LDUPA			LLEP			LMEP			LRAD			LUL			LRFIN			RSHO			RUPA1			RMUPA			RDUPA			RLEP			RMEP			RRAD			RUL			RUFIN			USACR			LSACR			RSACR			LTHI1			LTHI2			LTHI3			LTHI4			LLFC			LMFC			LTIB1			LTIB2			LTIB3			LTIB4			LLMAL			LMMAL			LHEE			LMT1			LMT2			LMT5			RTHI			RTHI2			RTHI3			RTHI4			RLFC			RMFC			RTIB1			RTIB2			RTIB3			RTIB4			RLMAL			RMMAL			RHEE			RMT1			RMT2			RMT5			RASI			LASI			
		X1	Y1	Z1	X2	Y2	Z2	X3	Y3	Z3	X4	Y4	Z4	X5	Y5	Z5	X6	Y6	Z6	X7	Y7	Z7	X8	Y8	Z8	X9	Y9	Z9	X10	Y10	Z10	X11	Y11	Z11	X12	Y12	Z12	X13	Y13	Z13	X14	Y14	Z14	X15	Y15	Z15	X16	Y16	Z16	X17	Y17	Z17	X18	Y18	Z18	X19	Y19	Z19	X20	Y20	Z20	X21	Y21	Z21	X22	Y22	Z22	X23	Y23	Z23	X24	Y24	Z24	X25	Y25	Z25	X26	Y26	Z26	X27	Y27	Z27	X28	Y28	Z28	X29	Y29	Z29	X30	Y30	Z30	X31	Y31	Z31	X32	Y32	Z32	X33	Y33	Z33	X34	Y34	Z34	X35	Y35	Z35	X36	Y36	Z36	X37	Y37	Z37	X38	Y38	Z38	X39	Y39	Z39	X40	Y40	Z40	X41	Y41	Z41	X42	Y42	Z42	X43	Y43	Z43	X44	Y44	Z44	X45	Y45	Z45	X46	Y46	Z46	X47	Y47	Z47	X48	Y48	Z48	X49	Y49	Z49	X50	Y50	Z50	X51	Y51	Z51	X52	Y52	Z52	X53	Y53	Z53	X54	Y54	Z54	X55	Y55	Z55	X56	Y56	Z56	X57	Y57	Z57	X58	Y58	Z58	X59	Y59	Z59	X60	Y60	Z60	X61	Y61	Z61	

1001	5	-307.8475646972657	1720.245849609375	-821.1146240234377	-448.4829711914064	1596.4736328125	-890.951110839844	-414.299285888672	1636.680053710938	-736.9453125000001	-478.1001892089845	1492.5048828125	-822.4903564453127	-543.8142089843751	1178.313720703125	-792.1478271484377	-345.4853820800782	1420.727661132813	-817.9691162109377	-373.1780395507813	1478.311279296875	-944.9796142578127	-217.1304779052735	1415.440307617188	-1037.941162109375	-192.3566284179688	1438.72412109375	-1001.340637207031	-148.1003570556641	1411.3037109375	-1032.796875	-66.49353027343751	1404.8291015625	-1020.463684082031	-78.61042785644533	1338.970092773438	-969.119079589844	nan	nan	nan	173.8806610107422	1452.091796875	-933.884216308594	179.5807342529297	1486.946411132813	-831.2893066406252	-378.7290649414063	1477.844360351563	-691.2799072265626	-230.8477172851563	1439.927856445313	-584.2996215820314	-201.5942993164063	1453.419677734375	-621.6090698242189	-159.9367980957032	1435.062255859375	-580.8932495117189	-90.09873962402345	1433.465087890625	-589.7733154296876	-78.96981811523439	1358.95068359375	-607.3902587890626	114.7172393798828	1468.585083007813	-773.8677368164065	137.2047424316407	1483.54150390625	-701.0736083984376	188.7628631591797	1509.137329101563	-804.2542114257815	-557.5133056640626	1064.960327148438	-798.9870605468752	-567.9241333007814	1036.869384765625	-828.4233398437502	-562.5296020507814	1031.679321289063	-772.2129516601565	-332.1966247558594	844.6987915039065	-1031.972534179688	-251.9649810791016	817.1444091796877	-1034.182861328125	-225.7858123779297	850.8083496093752	-1008.399291992188	-230.6037292480469	761.4523315429689	-1034.569091796875	-165.9537353515625	674.4040527343751	-1026.828979492188	-124.4626159667969	683.4425048828126	-905.1684570312502	-60.82582092285158	590.1218872070314	-994.5133056640627	-103.0697708129883	529.2728881835939	-1040.231689453125	-62.61578750610353	539.1321411132814	-1021.654479980469	-35.87730026245118	464.4411010742189	-988.8256835937502	-55.5476531982422	303.0183410644532	-1001.561401367188	-32.06847381591798	333.1713256835938	-920.9563598632815	-104.3669738769532	269.2607727050782	-955.2591552734377	101.5458526611328	283.2462768554688	-915.9720458984377	108.8133087158203	275.7100219726563	-964.579528808594	76.26956939697267	240.5286560058594	-1010.120666503906	-449.1063232421876	775.122009277344	-638.9448852539064	-403.398895263672	727.5916748046876	-642.9649658203126	-372.4240722656251	738.2729492187501	-651.0355224609376	-419.6203918457032	645.4349975585939	-661.6601562500001	-410.3624572753907	495.5720520019532	-704.0850219726564	-369.5227966308594	504.9384155273439	-826.8106079101565	-337.5162353515626	363.0472106933594	-778.3853149414065	-378.3283691406251	276.0736083984376	-729.3317871093751	-339.6794433593751	278.1279602050782	-758.7662353515626	-344.4648437500001	235.4732055664063	-798.7475585937502	-398.1213989257814	106.0458297729492	-773.2813110351565	-368.1365051269532	136.0596008300782	-852.1795043945315	-447.5787658691407	88.68747711181642	-836.777770996094	-243.8252410888672	56.41915130615236	-825.1718750000002	-247.2464599609376	59.45810317993165	-782.2327270507815	-289.4216003417969	36.55656051635743	-735.3427124023439	-399.7636108398439	987.1868896484377	-683.8912963867189	-408.8096313476564	1015.594116210938	-933.4566650390627	
1002	5.005	-308.1928710937501	1720.4951171875	-821.004333496094	-448.6339111328126	1596.686157226563	-890.8081665039065	-414.4575195312501	1636.736572265625	-736.8505249023439	-478.1314086914064	1492.627319335938	-822.4843750000002	-543.6362304687501	1178.368896484375	-792.3739013671877	-345.6587829589844	1420.806274414063	-818.1700439453127	-373.3640747070313	1478.50390625	-945.0779418945315	-217.0015563964844	1415.705444335938	-1038.034423828125	-191.8879089355469	1438.768310546875	-1001.308837890625	-148.1158905029297	1411.728271484375	-1033.118774414063	-67.33322906494142	1405.34130859375	-1020.916687011719	-78.63719177246095	1339.315795898438	-969.4064941406252	nan	nan	nan	173.6934509277344	1452.658569335938	-934.3303833007815	179.5011138916016	1487.4345703125	-831.675476074219	-378.7412109375001	1477.776123046875	-691.3567504882814	-230.7757263183594	1439.96240234375	-584.4754638671876	-201.5408325195313	1453.44189453125	-621.8132934570314	-159.8360595703125	1435.12646484375	-581.0877075195314	-90.02868652343751	1433.488159179688	-590.0181274414064	-78.82485961914064	1359.0302734375	-607.7002563476564	114.9249496459961	1468.887084960938	-774.0425415039065	137.2868194580078	1483.917602539063	-701.3724975585939	188.7406768798828	1509.548217773438	-804.5354003906252	-557.3545532226564	1064.978515625	-799.2191162109377	-567.7626953125001	1036.919311523438	-828.6708984375002	-562.3132324218751	1031.7353515625	-772.4674072265627	-332.1321716308594	844.7268676757815	-1032.42626953125	-252.0354309082032	817.1692504882815	-1034.73388671875	-225.8391876220704	850.8118286132815	-1009.015502929688	-229.8822784423829	761.2918090820314	-1034.763427734375	-165.9657287597657	674.4357299804689	-1027.33837890625	-124.3289489746094	683.5150756835939	-905.6726684570315	-60.74773025512697	590.1323242187501	-995.1967773437502	-102.9842376708985	529.1202392578126	-1040.779174804688	-62.55300903320314	539.2134399414064	-1022.192993164063	-35.88044357299805	464.4690551757814	-989.4982910156252	-56.10374450683595	303.2012939453126	-1002.17626953125	-31.88702011108399	333.2536010742188	-921.394714355469	-104.0733795166016	269.2932128906251	-955.5357055664065	101.8421707153321	283.4983520507813	-916.4959716796877	109.0111465454102	275.9891357421876	-965.1463012695315	76.71833801269533	240.7969360351563	-1010.965698242188	-449.1018676757814	775.2839965820315	-639.0823974609376	-403.466522216797	727.6676635742189	-643.1948242187501	-372.5233459472657	738.2094116210939	-651.2610473632814	-419.9378051757814	645.5693359375001	-661.9118041992189	-410.9765930175782	495.6737365722657	-704.2163696289064	-369.5245361328126	504.8306884765626	-826.7525024414065	-338.0409851074219	363.1593017578126	-778.527282714844	-378.7443542480469	276.2035217285157	-729.4270629882814	-339.9935302734376	278.2450256347657	-758.7891845703126	-344.7953796386719	235.586410522461	-798.7138671875002	-398.1748657226564	106.0115585327149	-773.3150024414065	-368.2349548339844	135.9954681396485	-852.154724121094	-447.6526489257814	88.6669158935547	-836.7911376953127	-243.8657379150391	56.50395584106447	-825.1836547851565	-247.2147064208985	59.49658203125001	-782.1995239257815	-289.4508666992188	36.57090759277344	-735.3204956054689	-399.5186462402345	987.2426757812502	-684.2880249023439	-408.6443176269532	1015.568054199219	-933.831481933594	
1003	5.01	-308.4642944335938	1720.789306640625	-820.9554443359377	-448.7640686035157	1596.62744140625	-890.5752563476565	-414.6937561035157	1636.769897460938	-736.6312866210939	-478.1827697753907	1492.730224609375	-822.4998779296877	-543.6267700195314	1178.35009765625	-792.5407714843752	-345.6702880859376	1420.850952148438	-818.381042480469	-373.4953002929688	1478.740234375	-945.2348632812502	-217.2959899902344	1416.090454101563	-1038.280395507813	-191.9663848876953	1439.0234375	-1001.517578125	-148.0713500976563	1412.051391601563	-1033.352783203125	-67.43385314941408	1405.675537109375	-1021.139099121094	-78.69993591308595	1339.65234375	-969.7186279296877	nan	nan	nan	173.6448364257813	1453.081176757813	-934.717468261719	179.428695678711	1487.830688476563	-832.1359863281252	-378.6981811523438	1477.802490234375	-691.4329223632814	-230.6316833496094	1439.993774414063	-584.6101074218751	-201.4663543701172	1453.47216796875	-621.9668579101564	-159.6211090087891	1435.181884765625	-581.3049926757814	-89.91826629638673	1433.521118164063	-590.1986083984376	-78.73917388916017	1359.052001953125	-607.9847412109376	114.8958969116211	1469.224975585938	-774.3903808593752	137.3315582275391	1484.126342773438	-701.7088012695314	188.6508331298828	1509.953735351563	-804.851989746094	-557.1220703125001	1065.054565429688	-799.4960937500002	-567.6066284179689	1036.925537109375	-828.8405761718752	-562.0950927734376	1031.769897460938	-772.674743652344	-332.1715087890626	844.6503906250002	-1032.776245117188	-252.0826110839844	817.200622558594	-1035.44677734375	-225.965316772461	850.773376464844	-1009.526062011719	-230.7003479003907	761.2925415039064	-1035.530151367188	-166.011703491211	674.4140014648439	-1027.828002929688	-124.2614669799805	683.5713500976564	-906.218444824219	-60.69881820678712	590.1275634765626	-995.8548583984377	-102.9430923461914	529.0721435546876	-1041.349975585938	-62.53305435180665	539.1245117187501	-1022.6865234375	-36.13367080688477	464.563201904297	-990.250915527344	-55.19732666015626	303.0781555175782	-1002.500732421875	-31.64119148254395	333.3279418945313	-921.8198242187502	-103.9017791748047	269.2837219238282	-955.835632324219	102.1144943237305	283.6729431152344	-917.1324462890627	109.2669830322266	276.2261962890626	-965.8057861328127	76.98351287841798	240.5804290771485	-1011.488220214844	-449.0027465820314	775.4813232421877	-639.2494506835939	-403.4415893554689	727.8739013671876	-643.4497680664064	-372.5618896484376	738.2073364257814	-651.4379272460939	-420.1959533691407	645.7072143554689	-662.1445922851564	-411.773895263672	495.6839904785157	-704.4512329101564	-370.4392395019532	504.7731933593751	-827.1260375976565	-338.6306762695313	363.2812805175782	-778.8083496093752	-379.1765441894532	276.2177124023438	-729.5608520507814	-340.3101196289063	278.3763122558594	-758.7768554687501	-345.1034545898438	235.6417846679688	-798.7312011718752	-398.2438964843751	105.9869995117188	-773.2918701171877	-368.1331481933594	136.0135955810547	-852.147644042969	-447.6936950683595	88.62664794921876	-836.7513427734377	-243.8687744140626	56.50958633422853	-825.1367187500002	-247.0374450683594	59.49903106689455	-781.9465332031252	-289.4035339355469	36.59095764160157	-735.3278198242189	-399.241912841797	987.3907470703127	-684.6419067382814	-408.585662841797	1015.635498046875	-934.1848754882815	
1004	5.015	-308.9609069824219	1721.188842773438	-820.9503173828127	-448.798309326172	1596.822631835938	-890.4958496093752	-414.7669372558595	1636.744873046875	-736.6959838867189	-478.2038574218751	1492.800537109375	-822.5074462890627	-543.5012817382814	1178.40087890625	-792.7768554687502	-345.6746826171876	1421.009887695313	-818.5271606445315	-373.6329345703126	1478.977905273438	-945.3344726562502	-217.332260131836	1416.371459960938	-1038.425659179688	-192.1304779052735	1439.3759765625	-1001.735473632813	-148.2264709472657	1412.305541992188	-1033.580688476563	-67.52063751220705	1406.084594726563	-1021.422912597656	-78.76525878906251	1339.994995117188	-970.0801391601565	nan	nan	nan	173.5611419677735	1453.5537109375	-935.0776977539065	179.5092315673828	1488.2578125	-832.3623046875002	-378.5480346679688	1477.802368164063	-691.4346923828126	-230.5740509033204	1439.874633789063	-584.7647094726564	-201.3828887939454	1453.42578125	-622.2062988281251	-159.5356750488282	1435.158325195313	-581.5133056640626	-89.82058715820314	1433.519165039063	-590.4934082031251	-78.59854125976564	1359.068237304688	-608.2549438476564	115.0567703247071	1469.346923828125	-774.6345825195315	137.2873077392578	1484.34375	-702.0699462890626	188.5620422363282	1510.258544921875	-805.140075683594	-557.0491333007814	1065.117431640625	-799.7202148437502	-567.4874267578126	1036.990234375	-829.034362792969	-561.9366455078126	1031.813354492188	-772.8579101562502	-332.1511535644532	844.5567016601565	-1033.0888671875	-252.229965209961	817.086120605469	-1035.915893554688	-226.0580139160157	850.691589355469	-1010.055236816406	-230.0713806152344	761.0318603515626	-1035.76220703125	-166.1121368408203	674.3233642578126	-1028.250366210938	-124.1612243652344	683.5859375000001	-906.6995849609377	-60.68542098999025	589.9865112304689	-996.4160156250002	-103.0643081665039	528.9848022460939	-1041.833129882813	-62.56499099731447	539.0615844726564	-1023.374084472656	-36.10181427001954	464.586151123047	-990.871032714844	-55.15470123291017	303.0604248046876	-1002.943725585938	-31.39080047607423	333.3836975097657	-922.3209228515627	-103.3425903320313	269.1065063476563	-955.9924926757815	102.4650192260742	283.9931640625001	-917.8447875976565	109.5692825317383	276.4053039550782	-966.4177856445315	76.86398315429689	240.8975982666016	-1011.821411132813	-448.844451904297	775.6774902343752	-639.3696899414064	-403.4608764648439	727.9667358398439	-643.6068725585939	-372.5905151367188	738.2592163085939	-651.6553344726564	-420.4653320312501	645.8047485351564	-662.3735961914064	-412.4513549804689	495.6871948242189	-704.6856079101564	-371.0321350097657	504.7794799804689	-827.3674316406252	-339.1735534667969	363.4229125976563	-778.9835205078127	-379.5138549804688	276.3157043457032	-729.6283569335939	-340.6818542480469	278.4722290039063	-758.8854370117189	-345.4628906250001	235.7227935791016	-798.7844238281252	-398.2764282226564	105.9541778564453	-773.2904052734377	-368.2492065429688	135.9224548339844	-852.1215820312502	-447.6644897460939	88.56615447998048	-836.8018188476565	-244.0233154296876	56.4467124938965	-824.632019042969	-247.1230773925782	59.54508590698244	-782.0675048828127	-289.4471435546876	36.58921051025391	-735.2976074218751	-398.8759765625001	987.6174926757815	-684.9663085937501	-408.5296020507814	1015.623168945313	-934.5120849609377	
